<svg width="64" height="64" viewBox="0 0 64 64" xmlns="http://www.w3.org/2000/svg">
  <defs>
    <linearGradient id="bgGrad" x1="0%" y1="0%" x2="100%" y2="100%">
      <stop offset="0%" stop-color="#FFE66D"/>
      <stop offset="55%" stop-color="#FFD60A"/>
      <stop offset="100%" stop-color="#FFA800"/>
    </linearGradient>
    <linearGradient id="pageGrad" x1="0%" y1="0%" x2="0%" y2="100%">
      <stop offset="0%" stop-color="#FFFDF3"/>
      <stop offset="100%" stop-color="#FFF6D6"/>
    </linearGradient>
    <linearGradient id="sheenGrad" x1="0%" y1="0%" x2="100%" y2="100%">
      <stop offset="0%" stop-color="#FFFFFF" stop-opacity="0.55"/>
      <stop offset="100%" stop-color="#FFFFFF" stop-opacity="0"/>
    </linearGradient>
    <clipPath id="badgeClip">
      <rect x="2" y="2" width="60" height="60" rx="18"/>
    </clipPath>
  </defs>

    <rect x="2" y="2" width="60" height="60" rx="18" fill="url(#bgGrad)"/>

  <g clip-path="url(#badgeClip)">
        <ellipse cx="20" cy="14" rx="34" ry="18" fill="url(#sheenGrad)"/>

        <g stroke="#FFF3B0" stroke-width="2.4" stroke-linecap="round" opacity="0.85">
      <line x1="50" y1="6" x2="50" y2="1"/>
      <line x1="57" y1="10" x2="61" y2="7"/>
      <line x1="60" y1="17" x2="65" y2="16"/>
    </g>
    <circle cx="50" cy="15" r="7" fill="#FFF6D0"/>

        <g transform="translate(13, 20)">
      <rect x="0" y="0" width="30" height="34" rx="4" fill="url(#pageGrad)" stroke="#E8A400" stroke-width="1.2"/>
            <circle cx="0" cy="7" r="1.6" fill="#FF8C00"/>
      <circle cx="0" cy="15" r="1.6" fill="#FF8C00"/>
      <circle cx="0" cy="23" r="1.6" fill="#FF8C00"/>
            <line x1="7" y1="10" x2="24" y2="10" stroke="#E3B341" stroke-width="2" stroke-linecap="round"/>
      <line x1="7" y1="16" x2="24" y2="16" stroke="#E3B341" stroke-width="2" stroke-linecap="round"/>
      <line x1="7" y1="22" x2="19" y2="22" stroke="#E3B341" stroke-width="2" stroke-linecap="round"/>
    </g>

        <g transform="translate(37, 34) rotate(45)">
      <rect x="0" y="0" width="5.5" height="20" rx="2.5" fill="#FF5252"/>
      <rect x="0" y="0" width="5.5" height="6" rx="2.5" fill="#2B2410"/>
      <polygon points="0,20 5.5,20 2.75,25" fill="#2B2410"/>
    </g>
  </g>

    <rect x="2" y="2" width="60" height="60" rx="18" fill="none" stroke="#FFFFFF" stroke-opacity="0.5" stroke-width="1.5"/>
</svg>
